<?xml version="1.0" encoding="utf-8"?>
<!-- Generator: Adobe Illustrator 20.1.0, SVG Export Plug-In . SVG Version: 6.00 Build 0)  -->
<svg version="1.1" id="mainlogo" xmlns="http://www.w3.org/2000/svg" xmlns:xlink="http://www.w3.org/1999/xlink" x="0px"
	 y="0px" viewBox="0 0 840 230" style="enable-background:new 0 0 840 230;" xml:space="preserve">
<style type="text/css">
	.st0{fill:#E73E23;}
</style>
<g>
	<path class="st0" d="M840,230H0V0h840V230z M19.3,210.7h801.3V19.3H19.3V210.7z"/>
	<g>
		<path class="st0" d="M115.3,60c0,0,48.5,0,49.8,0c27.2,0,37.6,15.8,37.6,31.3c0,9-4.8,16-9.7,19.3c12,6.2,17.2,16.9,17.2,27.4
			c0,23.9-24.2,32.1-37.4,32.1h-57.5V60z M159.5,103.4c5.4,0,9.1-3.3,9.1-8.4c0-2.9-2.5-7.8-8.6-7.8c-3.6,0.2-7.3,0.2-10.9,0.4v15.7
			H159.5z M164.4,142.7c5.2,0,10-2.9,10-8.4c0-5.8-5.9-8-9.5-8l-15.9,0.2v16.1H164.4z"/>
		<path class="st0" d="M557.7,59.9c0,0,48.5,0,49.8,0c27.2,0,37.6,15.8,37.6,31.3c0,9-4.8,16-9.7,19.3c12,6.2,17.2,16.9,17.2,27.4
			c0,23.9-24.2,32.1-37.4,32.1h-57.5V59.9z M601.9,103.3c5.4,0,9.1-3.3,9.1-8.4c0-2.9-2.5-7.8-8.6-7.8c-3.6,0.2-7.3,0.2-10.9,0.4
			v15.8H601.9z M606.9,142.6c5.2,0,10-2.9,10-8.4c0-5.8-5.9-8-9.5-8l-15.9,0.2v16.1H606.9z"/>
		<path class="st0" d="M313,152.4l-38.2-0.1l-5.6,17.7h-34l39.1-109.8l40.9-0.2l37.4,110h-34L313,152.4z M304.7,126.5l-10.8-33.6
			l-10.8,33.6H304.7z"/>
		<path class="st0" d="M515,60.1v109.7h-34v-54.5l-21.3,29.7h-19.3l-20.2-29.7v54.5h-34V60.1h34l30.3,43.1L481,60.1H515z"/>
		<rect x="690.7" y="60.3" class="st0" width="34" height="109.5"/>
	</g>
</g>
</svg>
